Coordinates
version=1
nRows=4
nColumns=124
inDegrees=yes

Units are S.I. units (second, meters, Newtons, ...)
If the header above contains a line with 'inDegrees', this indicates whether rotational values are in degrees (yes) or radians (no).

endheader 
time	pelvis_tilt	pelvis_list	pelvis_rotation	pelvis_tx	pelvis_ty	pelvis_tz	hip_flexion_l	hip_adduction_l	hip_rotation_l	hip_flexion_r	hip_adduction_r	hip_rotation_r	knee_angle_l	knee_angle_r	ankle_angle_l	ankle_angle_r	subtalar_angle_l	subtalar_angle_r	mtp_angle_l	mtp_angle_r	lumbar_extension	lumbar_bending	lumbar_rotation	arm_flex_l	arm_add_l	arm_rot_l	arm_flex_r	arm_add_r	arm_rot_r	elbow_flex_l	elbow_flex_r	glut_med1_l/activation	glut_med2_l/activation	glut_med3_l/activation	glut_min1_l/activation	glut_min2_l/activation	glut_min3_l/activation	semimem_l/activation	semiten_l/activation	bifemlh_l/activation	bifemsh_l/activation	sar_l/activation	add_long_l/activation	add_brev_l/activation	add_mag1_l/activation	add_mag2_l/activation	add_mag3_l/activation	tfl_l/activation	pect_l/activation	grac_l/activation	glut_max1_l/activation	glut_max2_l/activation	glut_max3_l/activation	iliacus_l/activation	psoas_l/activation	quad_fem_l/activation	gem_l/activation	peri_l/activation	rect_fem_l/activation	vas_med_l/activation	vas_int_l/activation	vas_lat_l/activation	med_gas_l/activation	lat_gas_l/activation	soleus_l/activation	tib_post_l/activation	flex_dig_l/activation	flex_hal_l/activation	tib_ant_l/activation	per_brev_l/activation	per_long_l/activation	per_tert_l/activation	ext_dig_l/activation	ext_hal_l/activation	ercspn_l/activation	intobl_l/activation	extobl_l/activation	glut_med1_r/activation	glut_med2_r/activation	glut_med3_r/activation	glut_min1_r/activation	glut_min2_r/activation	glut_min3_r/activation	semimem_r/activation	semiten_r/activation	bifemlh_r/activation	bifemsh_r/activation	sar_r/activation	add_long_r/activation	add_brev_r/activation	add_mag1_r/activation	add_mag2_r/activation	add_mag3_r/activation	tfl_r/activation	pect_r/activation	grac_r/activation	glut_max1_r/activation	glut_max2_r/activation	glut_max3_r/activation	iliacus_r/activation	psoas_r/activation	quad_fem_r/activation	gem_r/activation	peri_r/activation	rect_fem_r/activation	vas_med_r/activation	vas_int_r/activation	vas_lat_r/activation	med_gas_r/activation	lat_gas_r/activation	soleus_r/activation	tib_post_r/activation	flex_dig_r/activation	flex_hal_r/activation	tib_ant_r/activation	per_brev_r/activation	per_long_r/activation	per_tert_r/activation	ext_dig_r/activation	ext_hal_r/activation	ercspn_r/activation	intobl_r/activation	extobl_r/activation	
          0.37579876	          2.45642045	         -4.37058343	         -4.96565463	          0.30078741	          1.03075788	          0.01400959	          1.12552819	         -1.33285111	         11.34297996	          5.69214954	          2.81224689	         -7.21456188	        -12.05519705	        -48.34098708	         10.68166761	         10.11410349	        -13.35085405	          6.11825821	          5.17746812	          2.24977657	         -3.37443852	         -5.53174534	          3.46072544	        -30.73303977	        -13.46347471	         19.34479495	          9.98285063	        -13.46386027	         16.97033756	         17.01788718	        115.05544586	          0.85137818	          0.96207752	          0.42083071	          0.53867279	          0.54214430	          0.21559959	          0.07954821	          0.05000267	          0.07611788	          0.05000095	          0.05000565	          0.05000014	          0.05000051	          0.05000308	          0.05000623	          0.05001751	          0.54333202	          0.05000146	          0.05000088	          0.10675452	          0.15033487	          0.05000783	          0.05000040	          0.05000042	          0.05000029	          0.05000273	          0.22317879	          0.53162024	          0.27996618	          0.29778165	          0.06092224	          0.05000202	          0.05000484	          0.55368840	          0.50690759	          0.24998582	          0.24552221	          0.05002598	          0.05000153	          0.05000082	          0.05000534	          0.05000235	          0.05001244	          0.05000007	          0.05000021	          0.05000017	          0.05000047	          0.05000079	          0.05000400	          0.05000226	          0.05000218	          0.05000682	          0.05000571	          0.05000064	          0.05000024	          0.39054967	          0.28884419	          0.14269239	          0.24608732	          0.05003752	          0.05002128	          0.05000416	          0.27419885	          0.21544980	          0.18470689	          0.05000976	          0.05000573	          0.05000528	          0.29495198	          0.33759028	          0.41513034	          0.23196001	          0.05000632	          0.15361925	          0.05000067	          0.05000061	          0.05000045	          0.05000376	          0.05000876	          0.05000014	          0.06215498	          0.05020154	          0.05000567	          0.36691279	          0.05000125	          0.05000057	          0.16682570	          0.23603349	          0.28994343	          0.11979776	          0.31088112	          0.23199727	
          0.40711533	          2.56229908	         -4.96806351	         -3.50170333	          0.31823909	          1.03221606	          0.01280047	         -0.65150037	         -2.16193893	         12.23327903	          8.75764217	          4.04279472	         -7.92786066	        -10.62515601	        -46.09343191	         10.80006172	         12.79592105	        -13.19520833	          4.86508229	          5.53446508	          1.43140350	         -3.83681482	         -5.37444907	          3.46719059	        -29.66339690	        -13.46353002	         19.34889012	         12.97667859	        -13.46369185	         15.44073757	         13.64746644	        113.76772694	          0.73392538	          0.92020254	          0.39868605	          0.49394961	          0.50354963	          0.20082851	          0.05226845	          0.05000167	          0.05001420	          0.05000121	          0.05001708	          0.05000016	          0.05000055	          0.05000307	          0.05000589	          0.05000984	          0.58905826	          0.05000166	          0.05000095	          0.07368240	          0.09879196	          0.05000533	          0.05000056	          0.05000049	          0.05000034	          0.05000360	          0.21674824	          0.53797885	          0.18395663	          0.19566192	          0.05004048	          0.05000324	          0.05000611	          0.60125554	          0.46916562	          0.21652096	          0.22156318	          0.05001165	          0.05000256	          0.05000151	          0.05000559	          0.05000194	          0.05000648	          0.05000008	          0.05000022	          0.05000017	          0.05000051	          0.05000079	          0.05000369	          0.05000271	          0.05000257	          0.05000729	          0.05000376	          0.05000046	          0.05000021	          0.26826665	          0.36303700	          0.16211796	          0.21038632	          0.05002505	          0.05001684	          0.05000316	          0.31837798	          0.20931205	          0.12136458	          0.05000768	          0.05000418	          0.05000356	          0.30196132	          0.33238792	          0.40735751	          0.23774916	          0.05000743	          0.10093667	          0.05000047	          0.05000042	          0.05000028	          0.05000340	          0.05000865	          0.05000016	          0.05293206	          0.05003772	          0.05000677	          0.34620930	          0.05000152	          0.05000069	          0.17094984	          0.21432061	          0.26543433	          0.12982480	          0.31287278	          0.23093644	
          0.43843189	          2.64707779	         -5.33223296	         -2.08676642	          0.33511629	          1.03277791	          0.01141263	         -2.32059579	         -2.78335315	         13.08176658	         11.69819245	          4.93990491	         -8.56808542	         -9.22792204	        -42.55335515	         10.87996539	         14.41294302	        -13.20543839	          3.70513026	          5.85899658	          0.89600237	         -4.32919266	         -5.24725368	          3.42821385	        -27.85094521	        -13.46461979	         19.29269600	         15.65616052	        -13.46369046	         13.74031142	         10.01094744	        110.86111372	          0.60690203	          0.83275852	          0.32642598	          0.47527016	          0.47681401	          0.18719195	          0.05000135	          0.05000116	          0.05000076	          0.05000277	          0.21103215	          0.05000022	          0.05000065	          0.05000324	          0.05000572	          0.05000553	          0.63171557	          0.05000227	          0.05000118	          0.05005761	          0.06491840	          0.05000337	          0.05000158	          0.05000514	          0.05000041	          0.05000451	          0.23589733	          0.53663211	          0.12087013	          0.12856111	          0.05000800	          0.10587385	          0.05841867	          0.63734415	          0.45055220	          0.20187046	          0.20323674	          0.05001668	          0.05000222	          0.05000126	          0.05000588	          0.05000225	          0.05000874	          0.05000009	          0.05000018	          0.05000017	          0.05000054	          0.05000083	          0.05000376	          0.05000303	          0.05000300	          0.05000803	          0.05000212	          0.05000033	          0.05000020	          0.17626667	          0.44196943	          0.20262512	          0.14841497	          0.05002053	          0.05001379	          0.05000251	          0.32067333	          0.19212123	          0.07974430	          0.05000574	          0.05000303	          0.05000260	          0.33318786	          0.34229569	          0.42226595	          0.25099009	          0.05000889	          0.06632310	          0.05000035	          0.05000031	          0.05000019	          0.05000378	          0.05000983	          0.05000026	          0.05000326	          0.05001120	          0.05000641	          0.30201663	          0.05000254	          0.05000150	          0.15894492	          0.21595917	          0.22092355	          0.14004541	          0.32303283	          0.22151397	
          0.46974846	          2.71221478	         -5.44190799	         -0.74060926	          0.35185430	          1.03245565	          0.00982266	         -3.95193556	         -3.16256630	         13.90530635	         14.33492038	          5.46064314	         -9.09772574	         -7.82018064	        -37.78927571	         10.88615083	         14.88012659	        -13.39704639	          2.72006859	          6.20732573	          0.56043028	         -4.81233133	         -5.16120671	          3.35349070	        -25.49133114	        -13.48874463	         18.93428689	         17.97818873	        -13.46365684	         12.11897345	          6.52181759	        106.39951714	          0.50922860	          0.78526989	          0.31185404	          0.45398435	          0.45633459	          0.18150957	          0.05000151	          0.05000110	          0.05000076	          0.05444255	          0.27866906	          0.05000029	          0.05000074	          0.05000351	          0.05000598	          0.05000506	          0.66053549	          0.05000286	          0.05000143	          0.05005046	          0.05001502	          0.05000322	          0.05878258	          0.19764605	          0.05000051	          0.05000584	          0.28935503	          0.53875457	          0.07941883	          0.08447218	          0.05000592	          0.16184673	          0.10935289	          0.67223592	          0.43286141	          0.17804674	          0.18345951	          0.05001971	          0.05000263	          0.05000149	          0.05000711	          0.05000290	          0.05001095	          0.05000009	          0.05000017	          0.05000016	          0.05000062	          0.05000097	          0.05000432	          0.05000336	          0.05000351	          0.05000914	          0.05000042	          0.05000029	          0.05000032	          0.11581718	          0.45564440	          0.24329807	          0.09848097	          0.05001935	          0.05001245	          0.05000247	          0.29541137	          0.15266954	          0.05239754	          0.05000511	          0.05000276	          0.05000244	          0.35719916	          0.35010275	          0.40367974	          0.24177396	          0.05001069	          0.05810367	          0.05000033	          0.05000030	          0.05000017	          0.05000529	          0.05001191	          0.05000058	          0.05000222	          0.05000827	          0.05000546	          0.27160488	          0.05490127	          0.05000558	          0.12662637	          0.24599410	          0.16243316	          0.14573606	          0.32731180	          0.22322556	
